{"title":"Ek Thi Daayan 2013 Untouched SCam MPEG - Hindi","uid":8389354,"size":787396608,"categoryP":"video","categoryS":"movies","magnet":"?xt=urn:btih:65b04f3fd43b30ec78ffdaaa4c60556881ea50b8&amp;dn=Ek+Thi+Daayan+2013+Untouched+SCam+MPEG+-+Hindi&amp;tr=udp%3A%2F%2Ftracker.openbittorrent.com%3A80&amp;tr=udp%3A%2F%2Fopen.demonii.com%3A1337&amp;tr=udp%3A%2F%2Ftracker.coppersurfer.tk%3A6969&amp;tr=udp%3A%2F%2Fexodus.desync.com%3A6969","seeders":1,"leechers":0,"uploader":"SJonam","files":1,"time":1366378383,"description":" &lt;a href=&quot;http://desibbrg.org/images/66952052392581364616.gif&quot; rel=&quot;nofollow&quot; target=&quot;_NEW&quot;&gt;http://desibbrg.org/images/66952052392581364616.gif&lt;/a&gt; &lt;a href=&quot;\nhttp://desibbrg.org/images/88075338752205611649.jpg&quot; rel=&quot;nofollow&quot; target=&quot;_NEW&quot;&gt;\nhttp://desibbrg.org/images/88075338752205611649.jpg&lt;/a&gt; &lt;a href=&quot;\nhttp://desibbrg.org/images/70210738754894651028.jpg&quot; rel=&quot;nofollow&quot; target=&quot;_NEW&quot;&gt;\nhttp://desibbrg.org/images/70210738754894651028.jpg&lt;/a&gt;\n\nMedia Info - \nVideo\nFormat : MPEG Video\nFormat version : Version 2\nFormat settings, BVOP : Yes\nFormat settings, Matrix : Custom\nFormat settings, GOP : Variable\nDuration : 2h 0mn\nBit rate : 788 Kbps\nMaximum bit rate : 1 150 Kbps\nWidth : 352 pixels\nHeight : 288 pixels\nDisplay aspect ratio : 1.222\nFrame rate : 25.000 fps\nStandard : PAL\nColor space : YUV\nBit depth : 8 bits\nScan type : Progressive\nCompression mode : Lossy\nBits/(Pixel*Frame) : 0.311\nStream size : 681 MiB (91%)\n\nAudio\nFormat : MPEG Audio\nFormat version : Version 1\nFormat profile : Layer 2\nDuration : 2h 0mn\nBit rate mode : Constant\nBit rate : 64.0 Kbps\nChannel(s) : 2 channels\nSampling rate : 48.0 KHz\nCompression mode : Lossy\nStream size : 55.3 MiB (7%)\n\nSharer - Deshi Digital Dhoom\n\nSeeding 24x7... Extreme Seeding...\n\n\nEnjoy!\n","torrent":{"xt":"urn:btih:65b04f3fd43b30ec78ffdaaa4c60556881ea50b8","amp;dn":"Ek+Thi+Daayan+2013+Untouched+SCam+MPEG+-+Hindi","amp;tr":["udp%3A%2F%2Ftracker.openbittorrent.com%3A80","udp%3A%2F%2Fopen.demonii.com%3A1337","udp%3A%2F%2Ftracker.coppersurfer.tk%3A6969","udp%3A%2F%2Fexodus.desync.com%3A6969"],"infoHash":"65b04f3fd43b30ec78ffdaaa4c60556881ea50b8","infoHashBuffer":{"type":"Buffer","data":[101,176,79,63,212,59,48,236,120,255,218,170,76,96,85,104,129,234,80,184]},"announce":[],"urlList":[]}}